<svg width="265" height="49" viewBox="0 0 265 49" fill="none" xmlns="http://www.w3.org/2000/svg">
<g id="ArgenClima">
<path d="M21.0446 17.488V15.856C21.0446 12.752 20.4366 10.528 19.2206 9.184C18.0046 7.808 16.2926 7.12 14.0846 7.12C13.0606 7.12 12.0686 7.328 11.1086 7.744C10.1486 8.16 9.26856 8.8 8.46856 9.664C7.70056 10.528 7.01256 11.616 6.40456 12.928C5.82856 14.208 5.39656 15.728 5.10856 17.488H21.0446ZM4.86856 20.56C4.86856 22.672 5.06056 24.544 5.44456 26.176C5.82856 27.776 6.35656 29.136 7.02856 30.256C7.31656 30.736 7.50856 31.152 7.60456 31.504C7.73256 31.856 7.79656 32.208 7.79656 32.56C7.79656 33.104 7.54056 33.584 7.02856 34C6.54856 34.448 5.89256 34.672 5.06056 34.672C4.51656 34.672 3.97256 34.496 3.42856 34.144C2.91656 33.792 2.46856 33.248 2.08456 32.512C1.47656 31.328 0.996563 29.888 0.644562 28.192C0.292563 26.464 0.116563 24.704 0.116563 22.912C0.116563 20.16 0.516563 17.632 1.31656 15.328C2.14856 12.992 3.26856 10.992 4.67656 9.328C6.11656 7.632 7.76456 6.32 9.62056 5.392C11.5086 4.432 13.5086 3.952 15.6206 3.952C19.1086 3.952 21.7166 4.832 23.4446 6.592C25.1726 8.32 26.0366 11.024 26.0366 14.704V32.656C26.0366 33.264 25.8286 33.744 25.4126 34.096C24.9966 34.48 24.3726 34.672 23.5406 34.672C22.7086 34.672 22.0846 34.48 21.6686 34.096C21.2526 33.744 21.0446 33.264 21.0446 32.656V20.56H4.86856ZM37.3184 22.192C38.2464 19.504 39.4944 17.552 41.0624 16.336C42.6624 15.088 44.3424 14.464 46.1024 14.464C47.9264 14.464 49.3664 14.864 50.4224 15.664C51.5104 16.432 52.0544 17.296 52.0544 18.256C52.0544 18.928 51.8304 19.504 51.3824 19.984C50.9344 20.464 50.3264 20.704 49.5584 20.704C48.4704 20.704 47.6224 20.24 47.0144 19.312C46.6624 18.768 46.2784 18.384 45.8624 18.16C45.4784 17.936 45.0144 17.824 44.4704 17.824C43.7344 17.824 42.9504 18.192 42.1184 18.928C41.3184 19.664 40.5664 20.624 39.8624 21.808C39.1904 22.96 38.6304 24.288 38.1824 25.792C37.7344 27.264 37.5104 28.736 37.5104 30.208V32.656C37.5104 33.2 37.3184 33.648 36.9344 34C36.5824 34.384 35.9744 34.576 35.1104 34.576C34.2784 34.576 33.6704 34.384 33.2864 34C32.9344 33.648 32.7584 33.2 32.7584 32.656V16.816C32.7584 16.272 32.9344 15.824 33.2864 15.472C33.6384 15.088 34.2144 14.896 35.0144 14.896C35.8464 14.896 36.4384 15.088 36.7904 15.472C37.1424 15.824 37.3184 16.272 37.3184 16.816V22.192ZM79.0931 32.704C79.0931 33.216 79.1411 33.648 79.2371 34C79.3331 34.352 79.3811 34.72 79.3811 35.104C79.3811 36.736 78.9331 38.368 78.0371 40C77.1731 41.632 75.9891 43.104 74.4851 44.416C72.9811 45.728 71.2051 46.784 69.1571 47.584C67.1411 48.416 64.9651 48.832 62.6291 48.832C60.0051 48.832 58.0211 48.32 56.6771 47.296C55.3651 46.304 54.7091 45.104 54.7091 43.696C54.7091 42.832 54.9331 42.128 55.3811 41.584C55.8611 41.072 56.4371 40.816 57.1091 40.816C57.6851 40.816 58.1171 40.928 58.4051 41.152C58.7251 41.408 58.9811 41.712 59.1731 42.064C59.3651 42.416 59.5571 42.784 59.7491 43.168C59.9411 43.584 60.2131 43.968 60.5651 44.32C60.9171 44.672 61.3811 44.96 61.9571 45.184C62.5651 45.44 63.3651 45.568 64.3571 45.568C65.8291 45.568 67.1731 45.328 68.3891 44.848C69.6051 44.368 70.6451 43.696 71.5091 42.832C72.4051 42 73.0931 40.976 73.5731 39.76C74.0851 38.576 74.3411 37.264 74.3411 35.824V29.344C72.9011 30.976 71.2051 32.272 69.2531 33.232C67.3011 34.192 65.2211 34.672 63.0131 34.672C60.1011 34.672 57.9891 34.112 56.6771 32.992C55.3971 31.84 54.7571 30.288 54.7571 28.336C54.7571 26.672 55.2051 25.024 56.1011 23.392C56.9971 21.728 58.2131 20.24 59.7491 18.928C61.2851 17.584 63.0451 16.512 65.0291 15.712C67.0451 14.88 69.1571 14.464 71.3651 14.464C74.2451 14.464 76.3411 15.008 77.6531 16.096C78.9651 17.184 79.6211 18.608 79.6211 20.368C79.6211 20.912 79.5251 21.456 79.3331 22C79.1731 22.544 79.0931 23.04 79.0931 23.488V32.704ZM69.6851 17.296C68.2771 17.296 66.9811 17.568 65.7971 18.112C64.6131 18.624 63.5731 19.312 62.6771 20.176C61.8131 21.04 61.1251 22.032 60.6131 23.152C60.1331 24.272 59.8931 25.424 59.8931 26.608C59.8931 28.112 60.3091 29.28 61.1411 30.112C62.0051 30.912 63.2211 31.312 64.7891 31.312C66.1331 31.312 67.3971 31.056 68.5811 30.544C69.7651 30 70.7891 29.296 71.6531 28.432C72.5491 27.568 73.2531 26.576 73.7651 25.456C74.3091 24.336 74.5811 23.168 74.5811 21.952C74.5811 20.544 74.1331 19.424 73.2371 18.592C72.3731 17.728 71.1891 17.296 69.6851 17.296ZM197.544 32.56C197.544 33.104 197.352 33.568 196.968 33.952C196.584 34.304 195.96 34.48 195.096 34.48C194.264 34.48 193.656 34.304 193.272 33.952C192.888 33.568 192.696 33.104 192.696 32.56V16.576C192.696 16.032 192.888 15.584 193.272 15.232C193.656 14.848 194.264 14.656 195.096 14.656C195.96 14.656 196.584 14.848 196.968 15.232C197.352 15.584 197.544 16.032 197.544 16.576V32.56ZM195.096 10.288C194.136 10.288 193.432 10.096 192.984 9.712C192.536 9.296 192.312 8.816 192.312 8.272V6.448C192.312 5.904 192.536 5.44 192.984 5.056C193.432 4.64 194.136 4.432 195.096 4.432C196.024 4.432 196.712 4.64 197.16 5.056C197.64 5.44 197.88 5.904 197.88 6.448V8.272C197.88 8.816 197.64 9.296 197.16 9.712C196.712 10.096 196.024 10.288 195.096 10.288ZM216.13 14.464C217.634 14.464 218.818 14.944 219.682 15.904C220.546 16.864 221.01 18.256 221.074 20.08C222.098 18.064 223.234 16.624 224.482 15.76C225.73 14.896 227.218 14.464 228.946 14.464C230.034 14.464 230.962 14.64 231.73 14.992C232.53 15.312 233.186 15.776 233.698 16.384C234.21 16.96 234.594 17.648 234.85 18.448C235.106 19.216 235.234 20.048 235.234 20.944C235.234 21.936 235.09 23.04 234.802 24.256C234.546 25.44 234.178 26.64 233.698 27.856C233.25 29.04 232.706 30.176 232.066 31.264C231.458 32.32 230.786 33.216 230.05 33.952C229.698 34.304 229.378 34.528 229.09 34.624C228.802 34.72 228.498 34.768 228.178 34.768C227.762 34.768 227.394 34.624 227.074 34.336C226.786 34.048 226.642 33.744 226.642 33.424C226.642 33.264 226.674 33.104 226.738 32.944C226.834 32.752 227.01 32.496 227.266 32.176C227.618 31.696 227.954 31.088 228.274 30.352C228.626 29.616 228.93 28.8 229.186 27.904C229.474 27.008 229.698 26.064 229.858 25.072C230.018 24.08 230.098 23.12 230.098 22.192C230.098 18.928 229.074 17.296 227.026 17.296C226.29 17.296 225.57 17.584 224.866 18.16C224.194 18.704 223.586 19.472 223.042 20.464C222.498 21.424 222.05 22.576 221.698 23.92C221.378 25.232 221.218 26.672 221.218 28.24V32.656C221.218 33.2 221.026 33.648 220.642 34C220.29 34.384 219.682 34.576 218.818 34.576C217.986 34.576 217.378 34.384 216.994 34C216.642 33.648 216.466 33.2 216.466 32.656V21.52C216.466 19.952 216.29 18.864 215.938 18.256C215.618 17.616 215.09 17.296 214.354 17.296C213.714 17.296 213.074 17.584 212.434 18.16C211.826 18.736 211.266 19.52 210.754 20.512C210.242 21.472 209.826 22.624 209.506 23.968C209.186 25.28 209.026 26.688 209.026 28.192V32.656C209.026 33.2 208.834 33.648 208.45 34C208.098 34.384 207.49 34.576 206.626 34.576C205.794 34.576 205.186 34.384 204.802 34C204.45 33.648 204.274 33.2 204.274 32.656V16.816C204.274 16.272 204.45 15.824 204.802 15.472C205.154 15.088 205.73 14.896 206.53 14.896C207.362 14.896 207.954 15.088 208.306 15.472C208.658 15.824 208.834 16.272 208.834 16.816V20.608C209.602 18.368 210.578 16.784 211.762 15.856C212.946 14.928 214.402 14.464 216.13 14.464ZM256.38 14.464C259.26 14.464 261.356 15.008 262.668 16.096C263.98 17.184 264.636 18.608 264.636 20.368C264.636 20.912 264.54 21.456 264.348 22C264.188 22.544 264.108 23.04 264.108 23.488V32.56C264.108 33.104 263.916 33.568 263.532 33.952C263.18 34.304 262.588 34.48 261.756 34.48C260.892 34.48 260.268 34.304 259.884 33.952C259.532 33.568 259.356 33.104 259.356 32.56V29.344C257.916 30.976 256.22 32.272 254.268 33.232C252.316 34.192 250.236 34.672 248.028 34.672C245.116 34.672 243.004 34.112 241.692 32.992C240.412 31.84 239.772 30.288 239.772 28.336C239.772 26.672 240.22 25.024 241.116 23.392C242.012 21.728 243.228 20.24 244.764 18.928C246.3 17.584 248.06 16.512 250.044 15.712C252.06 14.88 254.172 14.464 256.38 14.464ZM254.7 17.296C253.292 17.296 251.996 17.568 250.812 18.112C249.628 18.624 248.588 19.312 247.692 20.176C246.828 21.04 246.14 22.032 245.628 23.152C245.148 24.272 244.908 25.424 244.908 26.608C244.908 28.112 245.324 29.28 246.156 30.112C247.02 30.912 248.236 31.312 249.804 31.312C251.148 31.312 252.412 31.056 253.596 30.544C254.78 30 255.804 29.296 256.668 28.432C257.564 27.568 258.268 26.576 258.78 25.456C259.324 24.336 259.596 23.168 259.596 21.952C259.596 20.544 259.148 19.424 258.252 18.592C257.388 17.728 256.204 17.296 254.7 17.296Z" fill="#75AADB"/>
<path d="M101.036 14.464C103.756 14.464 105.74 14.928 106.988 15.856C108.268 16.784 108.908 17.92 108.908 19.264C108.908 20.832 108.348 22.176 107.228 23.296C106.14 24.384 104.268 25.152 101.612 25.6L89.6598 27.616C89.6598 28.8 89.9798 29.744 90.6198 30.448C91.2918 31.12 92.5078 31.456 94.2678 31.456C95.8678 31.456 97.3398 31.264 98.6838 30.88C100.06 30.496 101.372 30 102.62 29.392C103.196 29.104 103.644 28.96 103.964 28.96C104.7 28.96 105.068 29.408 105.068 30.304C105.068 30.848 104.732 31.296 104.06 31.648C100.348 33.664 96.6198 34.672 92.8758 34.672C91.3718 34.672 90.0758 34.512 88.9878 34.192C87.9318 33.872 87.0678 33.44 86.3958 32.896C85.7238 32.32 85.2278 31.648 84.9078 30.88C84.5878 30.112 84.4278 29.28 84.4278 28.384C84.4278 26.72 84.8758 25.056 85.7718 23.392C86.6678 21.728 87.8678 20.24 89.3718 18.928C90.9078 17.616 92.6678 16.544 94.6518 15.712C96.6678 14.88 98.7958 14.464 101.036 14.464ZM99.4518 17.2C98.3318 17.2 97.2278 17.408 96.1398 17.824C95.0518 18.24 94.0598 18.8 93.1638 19.504C92.2998 20.208 91.5478 21.024 90.9078 21.952C90.2998 22.848 89.8998 23.776 89.7078 24.736L100.172 23.056C101.772 22.8 102.812 22.432 103.292 21.952C103.804 21.472 104.06 20.864 104.06 20.128C104.06 19.36 103.676 18.688 102.908 18.112C102.14 17.504 100.988 17.2 99.4518 17.2ZM117.803 20.752C120.395 16.56 124.267 14.464 129.419 14.464C132.235 14.464 134.315 15.024 135.659 16.144C137.003 17.264 137.675 18.736 137.675 20.56C137.675 21.552 137.499 22.624 137.147 23.776C136.795 24.928 136.299 26.096 135.659 27.28C135.051 28.464 134.299 29.632 133.403 30.784C132.507 31.904 131.531 32.928 130.475 33.856C130.123 34.208 129.803 34.432 129.515 34.528C129.259 34.624 128.971 34.672 128.651 34.672C128.235 34.672 127.867 34.512 127.547 34.192C127.259 33.904 127.115 33.6 127.115 33.28C127.115 33.12 127.147 32.96 127.211 32.8C127.275 32.608 127.435 32.384 127.691 32.128C128.459 31.328 129.131 30.48 129.707 29.584C130.315 28.656 130.811 27.76 131.195 26.896C131.611 26 131.931 25.152 132.155 24.352C132.379 23.552 132.491 22.832 132.491 22.192C132.491 20.528 132.059 19.296 131.195 18.496C130.363 17.696 129.179 17.296 127.643 17.296C126.427 17.296 125.227 17.568 124.043 18.112C122.891 18.656 121.867 19.424 120.971 20.416C120.075 21.376 119.355 22.528 118.811 23.872C118.267 25.184 117.995 26.624 117.995 28.192V32.656C117.995 33.2 117.803 33.648 117.419 34C117.067 34.384 116.459 34.576 115.595 34.576C114.763 34.576 114.155 34.384 113.771 34C113.419 33.648 113.243 33.2 113.243 32.656V16.816C113.243 16.272 113.419 15.824 113.771 15.472C114.123 15.088 114.699 14.896 115.499 14.896C116.331 14.896 116.923 15.088 117.275 15.472C117.627 15.824 117.803 16.272 117.803 16.816V20.752ZM157.542 31.36C158.79 31.36 159.958 31.232 161.046 30.976C162.166 30.688 163.19 30.32 164.118 29.872C165.078 29.424 165.942 28.912 166.71 28.336C167.51 27.728 168.198 27.088 168.774 26.416C169.158 25.968 169.526 25.632 169.878 25.408C170.262 25.184 170.726 25.072 171.27 25.072C171.782 25.072 172.182 25.2 172.47 25.456C172.758 25.712 172.902 26.064 172.902 26.512C172.902 27.024 172.662 27.536 172.182 28.048C171.35 28.944 170.342 29.792 169.158 30.592C168.006 31.392 166.742 32.096 165.366 32.704C163.99 33.312 162.55 33.792 161.046 34.144C159.542 34.496 158.038 34.672 156.534 34.672C154.07 34.672 151.926 34.416 150.102 33.904C148.278 33.36 146.758 32.624 145.542 31.696C144.358 30.736 143.462 29.6 142.854 28.288C142.278 26.976 141.99 25.52 141.99 23.92C141.99 22.256 142.262 20.608 142.806 18.976C143.35 17.344 144.118 15.792 145.11 14.32C146.102 12.816 147.286 11.44 148.662 10.192C150.07 8.944 151.622 7.856 153.318 6.928C155.014 6 156.838 5.28 158.79 4.768C160.774 4.224 162.822 3.952 164.934 3.952C167.846 3.952 170.23 4.336 172.086 5.104C173.942 5.872 175.302 6.816 176.166 7.936C176.582 8.448 176.79 9.056 176.79 9.76C176.79 10.432 176.518 11.008 175.974 11.488C175.43 11.968 174.726 12.208 173.862 12.208C173.414 12.208 172.966 12.096 172.518 11.872C172.07 11.616 171.67 11.28 171.318 10.864C170.262 9.584 169.03 8.672 167.622 8.128C166.246 7.552 164.63 7.264 162.774 7.264C160.662 7.264 158.678 7.68 156.822 8.512C154.998 9.312 153.398 10.416 152.022 11.824C150.678 13.2 149.606 14.8 148.806 16.624C148.006 18.416 147.606 20.304 147.606 22.288C147.606 23.568 147.83 24.768 148.278 25.888C148.758 26.976 149.414 27.936 150.246 28.768C151.11 29.568 152.15 30.208 153.366 30.688C154.614 31.136 156.006 31.36 157.542 31.36ZM185.966 32.56C185.966 33.104 185.774 33.568 185.39 33.952C185.006 34.304 184.382 34.48 183.518 34.48C182.686 34.48 182.078 34.304 181.694 33.952C181.31 33.568 181.118 33.104 181.118 32.56V2.224C181.118 1.68 181.31 1.232 181.694 0.879997C182.078 0.495998 182.686 0.303999 183.518 0.303999C184.382 0.303999 185.006 0.495998 185.39 0.879997C185.774 1.232 185.966 1.68 185.966 2.224V32.56Z" fill="#FFFBFB"/>
</g>
</svg>
