<svg width="237" height="200" viewBox="0 0 237 200" fill="none" xmlns="http://www.w3.org/2000/svg">
<g id="Logo-AC">
<g id="sol" filter="url(#filter0_d)">
<g id="g2129">
<path id="path2140" d="M105.8 7.24372C103.497 16.5652 106.035 24.2388 110.436 31.4693C113.838 37.0605 116.074 43.0189 115.968 49.4208C114.42 50.3243 112.944 51.2983 111.519 52.3464L75.9556 27.8936L99.8312 64.3022C99.4022 64.9153 98.9843 65.5526 98.5819 66.1831C91.8099 63.0252 85.4529 62.399 79.3953 63.612C70.832 65.3268 63.5618 63.4702 55.9701 58.7864C60.7093 67.0631 67.7799 70.6295 75.8305 72.5211C82.0683 73.9867 87.7067 76.5586 92.0095 81.1809C91.5413 82.9226 91.1547 84.6843 90.8607 86.4726L49 95.26L90.7663 103.528C90.8811 104.272 91.0194 105.014 91.1661 105.756C84.2186 108.477 79.2791 112.677 75.8235 117.97C70.9397 125.451 64.565 129.462 55.9975 131.707C65.0022 134.091 72.4025 131.432 79.3873 126.877C84.7884 123.354 90.5443 121.04 96.7286 121.15C97.6014 122.752 98.5422 124.28 99.5547 125.755L75.9455 162.601L111.134 137.842C111.722 138.282 112.317 138.734 112.921 139.148C109.871 146.158 109.278 152.77 110.45 159.04C112.106 167.905 110.301 175.4 105.776 183.259C113.771 178.353 117.216 171.033 119.044 162.7C120.46 156.242 122.944 150.405 127.409 145.951C129.095 146.437 130.79 146.836 132.521 147.141L141.01 190.474L148.997 147.238C149.716 147.119 150.432 146.976 151.149 146.824C153.776 154.018 157.836 159.13 162.948 162.707C170.175 167.762 174.049 174.361 176.218 183.23C178.52 173.909 175.953 166.248 171.552 159.018C168.142 153.416 165.932 147.475 166.05 141.053C167.587 140.154 169.052 139.182 170.468 138.141L206.062 162.581L182.174 126.141C182.594 125.54 183.012 124.922 183.406 124.304C190.18 127.471 196.561 128.076 202.622 126.862C211.186 125.147 218.426 127.017 226.017 131.701C221.278 123.424 214.22 119.888 206.169 117.997C199.939 116.533 194.307 113.912 190.008 109.293C190.475 107.554 190.833 105.799 191.127 104.014L233 95.258L191.221 86.9587C191.106 86.2149 190.968 85.4732 190.821 84.7306C197.775 82.012 202.708 77.8103 206.164 72.5165C211.048 65.0358 217.435 61.056 226.002 58.811C216.998 56.4275 209.585 59.0547 202.6 63.6101C197.189 67.1395 191.45 69.4282 185.247 69.306C184.378 67.7141 183.439 66.1977 182.433 64.7317L206.054 27.9169L170.841 52.6144C170.26 52.1799 169.663 51.7473 169.066 51.3393C172.122 44.3311 172.722 37.7484 171.55 31.4777C169.894 22.613 171.687 15.087 176.212 7.22825C168.216 12.1342 164.801 19.4406 162.974 27.7745C161.556 34.2391 159.029 40.0948 154.548 44.5486C152.874 44.0671 151.186 43.6493 149.467 43.3464L141.008 0L132.991 43.2487C132.272 43.3675 131.556 43.5107 130.838 43.6626C128.21 36.4688 124.153 31.3579 119.039 27.7802C111.813 22.7245 107.968 16.1127 105.8 7.24372V7.24372Z" fill="#FCBF49"/>
<path id="path2140 (Stroke)" fill-rule="evenodd" clip-rule="evenodd" d="M140.491 0.00520358L141.524 0L149.902 42.9325C151.418 43.2139 152.908 43.581 154.382 43.9978C158.627 39.6737 161.057 34.0188 162.436 27.7303C164.279 19.323 167.748 11.8636 175.904 6.85926L176.624 7.60685C172.157 15.3655 170.407 22.748 172.032 31.4463C173.2 37.6968 172.634 44.2475 169.696 51.1909C170.072 51.4545 170.447 51.7255 170.816 51.9982L205.686 27.5421L206.419 28.2946L183.024 64.7569C183.903 66.0561 184.731 67.3964 185.505 68.7945C191.451 68.8361 196.985 66.6185 202.25 63.1848C209.298 58.5881 216.853 55.8934 226.037 58.3243L226.035 59.3803C217.576 61.5968 211.318 65.5071 206.526 72.8472C203.081 78.1243 198.194 82.3279 191.369 85.0858C191.46 85.5569 191.546 86.0298 191.624 86.5044L232.995 94.7227L233 95.7918L191.527 104.464C191.261 106.032 190.942 107.581 190.54 109.12C194.713 113.496 200.153 116.016 206.212 117.44C214.334 119.348 221.54 122.939 226.374 131.381L225.652 132.127C218.156 127.502 211.054 125.678 202.652 127.361C196.612 128.57 190.262 128 183.549 124.955C183.294 125.345 183.033 125.733 182.769 126.115L206.424 162.198L205.697 162.958L170.444 138.752C169.189 139.662 167.894 140.519 166.544 141.32C166.504 147.476 168.646 153.205 171.963 158.655C176.402 165.949 179.037 173.757 176.688 183.265L175.668 183.264C173.527 174.509 169.721 168.043 162.629 163.081C157.533 159.516 153.471 154.452 150.806 147.391C150.351 147.484 149.895 147.574 149.436 147.655L141.527 190.468L140.494 190.474L132.087 147.554C130.562 147.274 129.065 146.922 127.576 146.502C123.349 150.825 120.96 156.46 119.582 162.743C117.738 171.152 114.239 178.623 106.084 183.627L105.364 182.88C109.831 175.12 111.593 167.769 109.968 159.071C108.8 152.821 109.359 146.242 112.293 139.294C111.909 139.021 111.53 138.737 111.159 138.459L76.3154 162.975L75.5809 162.223L98.9643 125.73C98.0789 124.421 97.2485 123.07 96.4707 121.662C90.5431 121.632 84.993 123.874 79.7379 127.302C72.6913 131.897 65.1488 134.624 55.9638 132.193L55.965 131.137C64.4224 128.921 70.6689 124.981 75.4616 117.639C78.9065 112.363 83.7999 108.161 90.619 105.401C90.5284 104.93 90.4421 104.457 90.364 103.982L49.0057 95.7949L49 94.7258L90.4609 86.0224C90.7316 84.4465 91.0731 82.8916 91.4778 81.3534C87.3017 76.977 81.8577 74.504 75.7882 73.0779C67.6656 71.1694 60.4479 67.5473 55.6141 59.1053L56.3363 58.3595C63.8313 62.9837 70.9628 64.7954 79.3655 63.1128C85.4035 61.9037 91.7293 62.4952 98.4377 65.5314C98.6977 65.1292 98.9644 64.7255 99.2364 64.3287L75.5942 28.2758L76.3208 27.516L111.544 51.7346C112.808 50.8182 114.113 49.9586 115.474 49.1534C115.502 43.0172 113.336 37.2718 110.025 31.8319C105.585 24.5358 102.982 16.7153 105.33 7.20841L105.84 7.34337L106.35 7.20968C108.491 15.9663 112.269 22.4445 119.359 27.4051C124.457 30.9717 128.516 36.035 131.182 43.0958C131.637 43.002 132.094 42.9127 132.552 42.8318L140.491 0.00520358ZM105.9 9.62417C104.503 17.786 106.911 24.6713 110.916 31.2511C114.347 36.8893 116.631 42.9455 116.523 49.4819L116.518 49.7939L116.255 49.9471C114.725 50.8401 113.266 51.8027 111.858 52.8389L111.563 53.0558L77.9692 29.9574L100.521 64.3473L100.304 64.6567C99.8819 65.2604 99.469 65.8899 99.0693 66.5162L98.8224 66.9031L98.414 66.7126C91.746 63.6031 85.5064 62.9929 79.5654 64.1826C71.5703 65.7836 64.6821 64.3135 57.6682 60.3957C62.2592 67.1894 68.6941 70.2938 76.0212 72.0153C82.3115 73.4933 88.051 76.0991 92.4443 80.8186L92.653 81.0428L92.5724 81.3427C92.1092 83.0657 91.7271 84.8071 91.4366 86.5738L91.376 86.9421L51.8274 95.2441L91.2849 103.055L91.3432 103.433C91.4561 104.165 91.5926 104.897 91.7385 105.635L91.8283 106.09L91.4091 106.254C84.5673 108.933 79.7222 113.059 76.3337 118.25C71.7744 125.233 65.9289 129.238 58.2972 131.602C66.1788 133.045 72.8194 130.526 79.1768 126.38C84.6235 122.827 90.4738 120.463 96.788 120.576L97.0894 120.581L97.2374 120.853C98.1001 122.436 99.0299 123.947 100.031 125.405L100.24 125.71L77.9382 160.516L111.178 137.128L111.477 137.352C111.552 137.408 111.627 137.464 111.702 137.52C112.217 137.907 112.727 138.29 113.243 138.643L113.617 138.899L113.433 139.321C110.43 146.223 109.852 152.713 111.001 158.864C112.548 167.141 111.117 174.245 107.332 181.5C113.894 176.748 116.893 170.087 118.556 162.502C119.983 155.99 122.501 150.049 127.06 145.501L127.276 145.285L127.566 145.369C129.234 145.849 130.909 146.243 132.619 146.544L132.975 146.607L140.995 187.547L148.54 146.701L148.905 146.641C149.612 146.524 150.319 146.383 151.033 146.232L151.472 146.139L151.63 146.573C154.217 153.657 158.205 158.672 163.218 162.179C169.965 166.898 173.833 172.95 176.117 180.85C177.511 172.691 175.078 165.817 171.072 159.235C167.633 153.585 165.375 147.547 165.495 140.991L165.501 140.68L165.763 140.527C167.282 139.639 168.73 138.678 170.13 137.648L170.425 137.431L204.052 160.521L181.485 126.096L181.701 125.786C182.117 125.19 182.53 124.579 182.919 123.97L183.166 123.583L183.574 123.774C190.243 126.892 196.507 127.482 202.453 126.291C210.448 124.69 217.31 126.171 224.319 130.09C219.73 123.302 213.307 120.224 205.979 118.502C199.693 117.025 193.961 114.369 189.574 109.655L189.365 109.431L189.446 109.131C189.906 107.416 190.26 105.682 190.551 103.913L190.612 103.544L230.172 95.2715L190.703 87.431L190.645 87.0538C190.532 86.322 190.395 85.5898 190.249 84.8515L190.16 84.3966L190.579 84.2326C197.427 81.5556 202.265 77.4283 205.654 72.237C210.214 65.2523 216.071 61.2746 223.703 58.9149C215.819 57.468 209.167 59.9614 202.811 64.1068C197.353 67.6666 191.52 70.0047 185.187 69.88L184.886 69.874L184.738 69.6032C183.88 68.0306 182.952 66.5318 181.957 65.0817L181.748 64.7766L204.064 29.9954L170.798 53.3275L170.499 53.104C169.923 52.6733 169.333 52.2458 168.745 51.8435L168.371 51.5877L168.555 51.1648C171.563 44.2646 172.148 37.8036 170.999 31.6533C169.452 23.377 170.872 16.2465 174.657 8.9859C168.099 13.7363 165.126 20.386 163.462 27.9715C162.033 34.4926 159.471 40.4523 154.898 44.9988L154.681 45.2139L154.392 45.1308C152.732 44.6534 151.063 44.2407 149.369 43.9422L149.013 43.8795L141.021 2.92727L133.447 43.7853L133.083 43.8455C132.376 43.9624 131.669 44.1037 130.955 44.2547L130.516 44.3477L130.358 43.9137C127.77 36.8293 123.784 31.8163 118.77 28.3079C112.022 23.5875 108.18 17.5248 105.9 9.62417Z" fill="#843511"/>
</g>
</g>
<g id="layer1" filter="url(#filter1_d)">
<g id="g4449">
<path id="path2844" d="M79.7388 83.8966C77.0187 100.662 94.4179 117.434 118.601 121.358C142.784 125.281 164.593 114.871 167.314 98.105C170.034 81.3395 152.634 64.5677 128.451 60.6441C104.268 56.7206 82.4589 67.1311 79.7388 83.8966Z" fill="#75AADB"/>
<path id="path2844 3" d="M81.5166 85.2584C78.8163 101.902 95.4362 118.445 118.638 122.21C141.84 125.974 162.838 115.534 165.538 98.8904C168.239 82.2471 151.619 65.7034 128.417 61.939C105.215 58.1746 84.2169 68.6151 81.5166 85.2584Z" fill="#EEEEEC"/>
<path id="path2844 9" d="M71.6989 122.099C69.2312 137.309 83.1391 152.22 102.763 155.404C122.387 158.588 140.296 148.839 142.764 133.629C145.231 118.419 131.323 103.508 111.699 100.324C92.0755 97.1399 74.1666 106.889 71.6989 122.099Z" fill="#EEEEEC"/>
<path id="path2844 5" d="M47.1564 96.276C44.6887 111.486 58.5966 126.397 78.2206 129.581C97.8446 132.765 115.753 123.016 118.221 107.806C120.689 92.5958 106.781 77.6846 87.157 74.5008C67.533 71.3169 49.6241 81.066 47.1564 96.276V96.276Z" fill="#75AADB"/>
<path id="path2844 11" d="M124.696 117.85C122.228 133.06 136.136 147.971 155.76 151.155C175.384 154.338 193.293 144.589 195.76 129.379C198.228 114.17 184.32 99.2583 164.696 96.0744C145.072 92.8906 127.163 102.64 124.696 117.85Z" fill="#75AADB"/>
<path id="path2844 11 1" d="M121.03 118.696C118.562 133.906 132.868 148.882 152.982 152.145C173.097 155.409 191.403 145.724 193.871 130.514C196.339 115.304 182.033 100.329 161.919 97.065C141.804 93.8016 123.497 103.486 121.03 118.696Z" fill="#EEEEEC"/>
<path id="path2844 1" d="M163.138 148.818C161.147 161.09 172.227 173.098 187.887 175.639C203.546 178.179 217.855 170.291 219.846 158.019C221.837 145.747 210.756 133.74 195.097 131.199C179.437 128.658 165.129 136.547 163.138 148.818V148.818Z" fill="#75AADB"/>
<path id="path2844 1 76" d="M162.255 149.218C160.384 160.749 171.335 172.12 186.714 174.615C202.093 177.11 216.077 169.785 217.948 158.254C219.819 146.723 208.868 135.353 193.489 132.857C178.11 130.362 164.126 137.687 162.255 149.218V149.218Z" fill="#EEEEEC"/>
<path id="path2844 5 4" d="M46.1134 98.8194C43.5268 114.763 57.6223 130.314 77.5967 133.555C97.5711 136.796 115.86 126.498 118.447 110.555C121.034 94.6118 106.938 79.0601 86.9639 75.8194C66.9895 72.5787 48.7001 82.8761 46.1134 98.8194Z" fill="#EEEEEC"/>
<path id="path2844 2" d="M10.4597 99.9579C7.99197 115.168 21.8999 130.079 41.5239 133.263C61.1479 136.447 79.0567 126.698 81.5245 111.488C83.9922 96.2778 70.0843 81.3667 50.4603 78.1828C30.8363 74.9989 12.9274 84.748 10.4597 99.9579Z" fill="#75AADB"/>
<path id="path2844 2 2" d="M11.5361 100.023C9.20718 114.377 23.3412 128.613 43.1054 131.82C62.8695 135.027 80.7795 125.99 83.1084 111.635C85.4374 97.2806 71.3033 83.0446 51.5391 79.838C31.775 76.6313 13.865 85.6684 11.5361 100.023Z" fill="#EEEEEC"/>
<path id="path2844 1 7" d="M158.09 166.308C156.772 174.431 163.095 182.216 172.214 183.695C181.332 185.175 189.792 179.788 191.11 171.665C192.428 163.541 186.105 155.757 176.986 154.277C167.868 152.798 159.408 158.184 158.09 166.308Z" fill="#75AADB"/>
<path id="path2844 1 7 2" d="M157.735 165.305C156.437 173.307 162.663 180.974 171.641 182.43C180.619 183.887 188.95 178.582 190.248 170.58C191.546 162.579 185.32 154.912 176.342 153.455C167.364 151.999 159.034 157.304 157.735 165.305V165.305Z" fill="#EEEEEC"/>
<path id="path2844 4" d="M98.5034 152.143C96.0357 167.353 109.944 182.264 129.568 185.448C149.192 188.632 167.1 178.883 169.568 163.673C172.036 148.463 158.128 133.552 138.504 130.368C118.88 127.184 100.971 136.933 98.5034 152.143Z" fill="#75AADB"/>
<path id="path2844 4 2" d="M98.4253 151.397C96.0097 166.285 109.586 180.875 128.748 183.984C147.911 187.093 165.403 177.544 167.819 162.655C170.234 147.767 156.658 133.177 137.496 130.068C118.333 126.959 100.841 136.508 98.4253 151.397Z" fill="#EEEEEC"/>
<path id="path2844 8" d="M22.2914 126.931C19.8237 142.141 33.7316 157.052 53.3555 160.236C72.9795 163.419 90.8884 153.67 93.3561 138.46C95.8238 123.251 81.916 108.339 62.292 105.155C42.668 101.972 24.7591 111.721 22.2914 126.931V126.931Z" fill="#75AADB"/>
<path id="path2844 1 7 6" d="M85.508 172.73C96.5724 176.201 108.305 171.589 111.714 162.428C115.123 153.266 108.916 143.025 97.8521 139.554C86.7878 136.082 75.055 140.694 71.6462 149.856C68.2375 159.017 74.4436 169.258 85.508 172.73Z" fill="#75AADB"/>
<path id="path2844 1 7 6 5" d="M85.3482 170.927C96.2224 174.367 107.776 169.726 111.153 160.56C114.53 151.393 108.453 141.173 97.5784 137.732C86.7042 134.291 75.151 138.932 71.7737 148.099C68.3964 157.265 74.4739 167.486 85.3482 170.927Z" fill="#EEEEEC"/>
<path id="path2844 8 1" d="M24.2369 126.896C21.8634 141.526 35.876 155.971 55.5351 159.16C75.1941 162.35 93.055 153.076 95.4286 138.447C97.8021 123.817 83.7895 109.372 64.1304 106.182C44.4714 102.993 26.6104 112.267 24.2369 126.896Z" fill="#EEEEEC"/>
</g>
</g>
</g>
<defs>
<filter id="filter0_d" x="45" y="0" width="192" height="198.474" filterUnits="userSpaceOnUse" color-interpolation-filters="sRGB">
<feFlood flood-opacity="0" result="BackgroundImageFix"/>
<feColorMatrix in="SourceAlpha" type="matrix" values="0 0 0 0 0 0 0 0 0 0 0 0 0 0 0 0 0 0 127 0"/>
<feOffset dy="4"/>
<feGaussianBlur stdDeviation="2"/>
<feColorMatrix type="matrix" values="0 0 0 0 0 0 0 0 0 0 0 0 0 0 0 0 0 0 0.25 0"/>
<feBlend mode="normal" in2="BackgroundImageFix" result="effect1_dropShadow"/>
<feBlend mode="normal" in="SourceGraphic" in2="effect1_dropShadow" result="shape"/>
</filter>
<filter id="filter1_d" x="1.99149" y="53.5399" width="225.459" height="145.673" filterUnits="userSpaceOnUse" color-interpolation-filters="sRGB">
<feFlood flood-opacity="0" result="BackgroundImageFix"/>
<feColorMatrix in="SourceAlpha" type="matrix" values="0 0 0 0 0 0 0 0 0 0 0 0 0 0 0 0 0 0 127 0"/>
<feOffset dy="4"/>
<feGaussianBlur stdDeviation="2"/>
<feColorMatrix type="matrix" values="0 0 0 0 0 0 0 0 0 0 0 0 0 0 0 0 0 0 0.25 0"/>
<feBlend mode="normal" in2="BackgroundImageFix" result="effect1_dropShadow"/>
<feBlend mode="normal" in="SourceGraphic" in2="effect1_dropShadow" result="shape"/>
</filter>
</defs>
</svg>
