<svg width="192" height="199" viewBox="0 0 192 199" fill="none" xmlns="http://www.w3.org/2000/svg">
<g id="sol" filter="url(#filter0_d)">
<g id="g2129">
<path id="path2140" d="M60.7996 7.24372C58.4971 16.5652 61.035 24.2388 65.4356 31.4693C68.8385 37.0605 71.0743 43.0189 70.9679 49.4208C69.42 50.3243 67.944 51.2983 66.5191 52.3464L30.9556 27.8936L54.8312 64.3022C54.4022 64.9153 53.9842 65.5526 53.5819 66.1831C46.8099 63.0252 40.4529 62.399 34.3953 63.612C25.832 65.3268 18.5618 63.4702 10.9701 58.7864C15.7093 67.063 22.7799 70.6295 30.8305 72.5211C37.0683 73.9867 42.7067 76.5586 47.0095 81.1809C46.5413 82.9226 46.1547 84.6843 45.8607 86.4726L4 95.26L45.7663 103.528C45.8811 104.272 46.0194 105.014 46.1661 105.756C39.2186 108.477 34.2791 112.677 30.8235 117.97C25.9396 125.451 19.565 129.462 10.9975 131.707C20.0022 134.09 27.4025 131.432 34.3873 126.877C39.7884 123.354 45.5443 121.04 51.7286 121.15C52.6014 122.752 53.5422 124.28 54.5547 125.755L30.9455 162.601L66.1342 137.842C66.7219 138.282 67.3169 138.734 67.9212 139.148C64.8706 146.158 64.2781 152.77 65.4499 159.04C67.1063 167.905 65.3005 175.4 60.7758 183.259C68.7712 178.353 72.2164 171.033 74.0437 162.7C75.4595 156.242 77.944 150.405 82.4092 145.951C84.0951 146.437 85.7899 146.836 87.521 147.141L96.0097 190.474L103.997 147.238C104.716 147.119 105.432 146.976 106.149 146.824C108.776 154.018 112.836 159.13 117.948 162.707C125.175 167.762 129.049 174.361 131.218 183.23C133.52 173.909 130.953 166.248 126.552 159.018C123.142 153.416 120.932 147.475 121.05 141.053C122.587 140.154 124.052 139.182 125.468 138.141L161.062 162.581L137.174 126.141C137.594 125.54 138.012 124.922 138.406 124.304C145.18 127.471 151.561 128.076 157.622 126.862C166.186 125.147 173.426 127.017 181.017 131.701C176.278 123.424 169.22 119.888 161.169 117.997C154.939 116.533 149.307 113.912 145.008 109.293C145.475 107.554 145.833 105.799 146.127 104.014L188 95.258L146.221 86.9587C146.106 86.2149 145.968 85.4732 145.821 84.7306C152.775 82.012 157.708 77.8103 161.164 72.5165C166.048 65.0358 172.435 61.056 181.002 58.811C171.998 56.4275 164.585 59.0547 157.6 63.6101C152.189 67.1395 146.45 69.4282 140.247 69.306C139.378 67.7141 138.439 66.1977 137.433 64.7317L161.054 27.9169L125.841 52.6144C125.26 52.1799 124.663 51.7473 124.066 51.3393C127.122 44.3311 127.722 37.7484 126.55 31.4776C124.894 22.613 126.687 15.087 131.212 7.22825C123.216 12.1342 119.801 19.4406 117.974 27.7745C116.556 34.2391 114.029 40.0948 109.548 44.5486C107.874 44.0671 106.186 43.6493 104.467 43.3464L96.0078 0L87.9906 43.2487C87.272 43.3675 86.5556 43.5107 85.8382 43.6626C83.2101 36.4688 79.1532 31.3579 74.0393 27.7802C66.8128 22.7245 62.9683 16.1127 60.7996 7.24372Z" fill="#FCBF49"/>
<path id="path2140 (Stroke)" fill-rule="evenodd" clip-rule="evenodd" d="M95.4911 0.00520358L96.5238 0L104.902 42.9325C106.418 43.2139 107.908 43.581 109.382 43.9978C113.627 39.6737 116.057 34.0188 117.436 27.7303C119.279 19.323 122.748 11.8636 130.904 6.85926L131.624 7.60685C127.157 15.3655 125.407 22.748 127.032 31.4463C128.2 37.6968 127.634 44.2475 124.696 51.1909C125.072 51.4545 125.447 51.7255 125.816 51.9982L160.686 27.5421L161.419 28.2946L138.024 64.7569C138.903 66.0561 139.731 67.3964 140.505 68.7945C146.451 68.8361 151.985 66.6185 157.25 63.1848C164.298 58.5881 171.853 55.8934 181.037 58.3243L181.035 59.3803C172.576 61.5968 166.318 65.5071 161.526 72.8472C158.081 78.1243 153.194 82.3279 146.369 85.0858C146.46 85.5569 146.546 86.0298 146.624 86.5044L187.995 94.7227L188 95.7918L146.527 104.464C146.261 106.032 145.942 107.581 145.54 109.12C149.713 113.496 155.153 116.016 161.212 117.44C169.334 119.348 176.54 122.939 181.374 131.381L180.652 132.127C173.156 127.502 166.054 125.678 157.652 127.361C151.612 128.57 145.262 128 138.549 124.955C138.294 125.345 138.033 125.733 137.769 126.115L161.424 162.198L160.697 162.958L125.444 138.752C124.189 139.662 122.894 140.519 121.544 141.32C121.504 147.476 123.646 153.205 126.963 158.655C131.402 165.949 134.037 173.757 131.688 183.265L130.668 183.264C128.527 174.509 124.721 168.043 117.629 163.081C112.533 159.516 108.471 154.452 105.806 147.391C105.351 147.484 104.895 147.574 104.436 147.655L96.5268 190.468L95.4941 190.474L87.0865 147.554C85.5619 147.274 84.0645 146.922 82.5761 146.502C78.3485 150.825 75.9597 156.46 74.582 162.743C72.7384 171.152 69.2394 178.623 61.0844 183.627L60.3639 182.88C64.8314 175.12 66.5933 167.769 64.968 159.071C63.8 152.821 64.3593 146.242 67.2932 139.294C66.9089 139.021 66.5295 138.737 66.1585 138.459L31.3154 162.975L30.5809 162.223L53.9643 125.73C53.0789 124.421 52.2485 123.07 51.4707 121.662C45.5431 121.632 39.993 123.874 34.7379 127.302C27.6913 131.897 20.1488 134.624 10.9638 132.193L10.965 131.137C19.4224 128.921 25.6689 124.981 30.4616 117.639C33.9065 112.363 38.7999 108.161 45.619 105.401C45.5284 104.93 45.4421 104.457 45.364 103.982L4.00574 95.7949L4 94.7258L45.4609 86.0224C45.7316 84.4465 46.0731 82.8916 46.4778 81.3534C42.3017 76.977 36.8577 74.504 30.7882 73.0779C22.6656 71.1694 15.4479 67.5473 10.6141 59.1053L11.3363 58.3595C18.8313 62.9837 25.9628 64.7954 34.3655 63.1128C40.4035 61.9037 46.7293 62.4952 53.4377 65.5314C53.6977 65.1292 53.9644 64.7255 54.2364 64.3287L30.5942 28.2758L31.3208 27.516L66.5438 51.7346C67.8082 50.8182 69.1135 49.9586 70.4736 49.1534C70.5017 43.0172 68.336 37.2718 65.0252 31.8319C60.5847 24.5358 57.9816 16.7153 60.3298 7.20841L60.8397 7.34337L61.3499 7.20968C63.4912 15.9663 67.2686 22.4445 74.3591 27.4051C79.4571 30.9717 83.5157 36.035 86.1816 43.0958C86.6367 43.002 87.0936 42.9127 87.5522 42.8318L95.4911 0.00520358ZM60.9004 9.62417C59.5027 17.786 61.9113 24.6713 65.9158 31.2511C69.3473 36.8893 71.6313 42.9455 71.5227 49.4819L71.5175 49.7939L71.255 49.9471C69.7252 50.8401 68.2663 51.8027 66.8576 52.8389L66.5628 53.0558L32.9692 29.9574L55.5208 64.3473L55.3043 64.6567C54.8819 65.2604 54.469 65.8899 54.0693 66.5162L53.8224 66.9031L53.414 66.7126C46.746 63.6031 40.5064 62.9929 34.5654 64.1826C26.5703 65.7836 19.6821 64.3135 12.6682 60.3957C17.2592 67.1894 23.6941 70.2938 31.0212 72.0153C37.3115 73.4933 43.051 76.0991 47.4443 80.8186L47.653 81.0428L47.5724 81.3427C47.1092 83.0657 46.7271 84.8071 46.4366 86.5738L46.376 86.9421L6.82741 95.2441L46.285 103.055L46.3432 103.433C46.4561 104.165 46.5926 104.897 46.7385 105.635L46.8283 106.09L46.4091 106.254C39.5673 108.933 34.7222 113.059 31.3337 118.25C26.7744 125.233 20.9289 129.238 13.2972 131.602C21.1788 133.045 27.8194 130.526 34.1768 126.38C39.6235 122.827 45.4738 120.463 51.788 120.576L52.0894 120.581L52.2374 120.853C53.1001 122.436 54.0299 123.947 55.0309 125.405L55.2403 125.71L32.9382 160.516L66.1777 137.128L66.4768 137.352C66.552 137.408 66.627 137.464 66.7019 137.52C67.2169 137.907 67.7267 138.29 68.2433 138.643L68.6171 138.899L68.4331 139.321C65.4296 146.223 64.852 152.713 66.0014 158.864C67.548 167.141 66.1172 174.245 62.3318 181.5C68.8939 176.748 71.8926 170.087 73.5555 162.502C74.9833 155.99 77.5005 150.049 82.0596 145.501L82.2762 145.285L82.566 145.369C84.2336 145.849 85.9088 146.243 87.6192 146.544L87.9749 146.607L95.9948 187.547L103.54 146.701L103.905 146.641C104.612 146.524 105.319 146.383 106.033 146.232L106.472 146.139L106.63 146.573C109.217 153.657 113.205 158.672 118.218 162.179C124.965 166.898 128.833 172.95 131.117 180.85C132.511 172.691 130.078 165.817 126.072 159.235C122.633 153.585 120.375 147.547 120.495 140.991L120.501 140.68L120.763 140.527C122.282 139.639 123.73 138.678 125.13 137.648L125.425 137.431L159.052 160.521L136.485 126.096L136.701 125.786C137.117 125.19 137.53 124.579 137.919 123.97L138.166 123.583L138.574 123.774C145.243 126.892 151.507 127.482 157.453 126.291C165.448 124.69 172.31 126.171 179.319 130.09C174.73 123.302 168.307 120.224 160.979 118.502C154.693 117.025 148.961 114.369 144.574 109.655L144.365 109.431L144.446 109.131C144.906 107.416 145.26 105.682 145.551 103.913L145.612 103.544L185.172 95.2715L145.703 87.431L145.645 87.0538C145.532 86.322 145.395 85.5898 145.249 84.8515L145.16 84.3966L145.579 84.2326C152.427 81.5556 157.265 77.4283 160.654 72.237C165.214 65.2523 171.071 61.2746 178.703 58.9149C170.819 57.468 164.167 59.9614 157.811 64.1068C152.353 67.6666 146.52 70.0047 140.187 69.88L139.886 69.874L139.738 69.6032C138.88 68.0306 137.952 66.5318 136.957 65.0817L136.748 64.7766L159.064 29.9954L125.798 53.3275L125.499 53.104C124.923 52.6733 124.333 52.2458 123.745 51.8435L123.371 51.5877L123.555 51.1648C126.563 44.2646 127.148 37.8036 125.999 31.6533C124.452 23.377 125.872 16.2465 129.657 8.9859C123.099 13.7363 120.126 20.386 118.462 27.9715C117.033 34.4926 114.471 40.4523 109.898 44.9988L109.681 45.2139L109.392 45.1308C107.732 44.6534 106.063 44.2407 104.369 43.9422L104.013 43.8795L96.0212 2.92727L88.4472 43.7853L88.0829 43.8455C87.3759 43.9624 86.6686 44.1037 85.9554 44.2547L85.5162 44.3477L85.3577 43.9137C82.7696 36.8293 78.7844 31.8163 73.7697 28.3079C67.0224 23.5875 63.1799 17.5248 60.9004 9.62417Z" fill="#843511"/>
</g>
</g>
<defs>
<filter id="filter0_d" x="0" y="0" width="192" height="198.474" filterUnits="userSpaceOnUse" color-interpolation-filters="sRGB">
<feFlood flood-opacity="0" result="BackgroundImageFix"/>
<feColorMatrix in="SourceAlpha" type="matrix" values="0 0 0 0 0 0 0 0 0 0 0 0 0 0 0 0 0 0 127 0"/>
<feOffset dy="4"/>
<feGaussianBlur stdDeviation="2"/>
<feColorMatrix type="matrix" values="0 0 0 0 0 0 0 0 0 0 0 0 0 0 0 0 0 0 0.25 0"/>
<feBlend mode="normal" in2="BackgroundImageFix" result="effect1_dropShadow"/>
<feBlend mode="normal" in="SourceGraphic" in2="effect1_dropShadow" result="shape"/>
</filter>
</defs>
</svg>
